<svg xmlns="http://www.w3.org/2000/svg" viewBox="0 0 256 256" fill="none">
  <defs>
    <linearGradient id="hex_gradient" x1="0%" y1="0%" x2="100%" y2="100%">
      <stop offset="0%" style="stop-color:#f9cedf;stop-opacity:1" />
      <stop offset="100%" style="stop-color:#f472b6;stop-opacity:1" />
    </linearGradient>
    <linearGradient id="bun_body" x1="0%" y1="0%" x2="0%" y2="100%">
      <stop offset="0%" style="stop-color:#ffffff;stop-opacity:0.9" />
      <stop offset="100%" style="stop-color:#fff1f2;stop-opacity:0.9" />
    </linearGradient>
    
    <!-- Blur filter for the Bun (Frosted effect) -->
    <filter id="frosted_blur" x="-20%" y="-20%" width="140%" height="140%">
      <feGaussianBlur stdDeviation="3" result="blur" />
      <feComposite in="SourceGraphic" in2="blur" operator="over" />
    </filter>
    
    <!-- Shadow for the Lightning to make it pop -->
    <filter id="bolt_shadow" x="-50%" y="-50%" width="200%" height="200%">
      <feDropShadow dx="0" dy="2" stdDeviation="2" flood-color="#ffffff" flood-opacity="0.8"/>
    </filter>
  </defs>
  
  <!-- 1. Background Shape: Hexagon/Container -->
  <path d="M128 24L224 80V176L128 232L32 176V80L128 24Z" fill="url(#hex_gradient)" stroke="#db2777" stroke-width="8" stroke-linejoin="round" />
  
  <!-- 2. The Bun (Centered, Frosted/Blurred) -->
  <!-- Applied opacity and blur to simulate being behind frosted glass or just soft -->
  <g transform="translate(64, 78) scale(0.65)" filter="url(#frosted_blur)" opacity="0.8">
      <!-- Body -->
      <path d="M48 180 C 48 80, 208 80, 208 180 L 48 180 Z" fill="url(#bun_body)"/>
      <!-- Eyes -->
      <circle cx="95" cy="140" r="10" fill="#db2777" />
      <circle cx="161" cy="140" r="10" fill="#db2777" />
      <!-- Mouth -->
      <path d="M118 155 Q 123 162 128 155 Q 133 162 138 155" stroke="#db2777" stroke-width="5" stroke-linecap="round" fill="none" />
      <!-- Cheeks -->
      <circle cx="75" cy="155" r="15" fill="#fecdd3" />
      <circle cx="181" cy="155" r="15" fill="#fecdd3" />
  </g>
  
  <!-- 3. Inner Symbol: Lightning Bolt (On top, Sharp) -->
  <!-- Color matches the hexagon border (#db2777) -->
  <path d="M148 56L92 128H140L108 200L164 128H116L148 56Z" fill="#db2777" stroke="#fff" stroke-width="3" stroke-linejoin="round" filter="url(#bolt_shadow)" />
</svg>
