<svg xmlns="http://www.w3.org/2000/svg" viewBox="0 0 256 256" fill="none">
  <defs>
    <!-- Vibrant Apple-style Pink Gradient -->
    <linearGradient id="apple_bg" x1="0%" y1="0%" x2="100%" y2="100%">
      <stop offset="0%" style="stop-color:#ffafbd;stop-opacity:1" />
      <stop offset="100%" style="stop-color:#ffc3a0;stop-opacity:1" />
    </linearGradient>
    
    <!-- Glassmorphism Reflection -->
    <linearGradient id="glass_reflection" x1="0%" y1="0%" x2="100%" y2="100%">
      <stop offset="0%" style="stop-color:#ffffff;stop-opacity:0.6" />
      <stop offset="45%" style="stop-color:#ffffff;stop-opacity:0.1" />
      <stop offset="100%" style="stop-color:#ffffff;stop-opacity:0.3" />
    </linearGradient>

    <!-- Soft Apple Shadow -->
    <filter id="apple_shadow" x="-50%" y="-50%" width="200%" height="200%">
      <feDropShadow dx="0" dy="8" stdDeviation="12" flood-color="#000000" flood-opacity="0.15"/>
    </filter>

    <!-- Frosted Blur for the Bun -->
    <filter id="frosted_glass" x="-20%" y="-20%" width="140%" height="140%">
      <feGaussianBlur stdDeviation="5" result="blur" />
    </filter>
  </defs>

  <!-- 1. Shadow Layer (Outer) -->
  <path d="M128 24L224 80V176L128 232L32 176V80L128 24Z" fill="#000" opacity="0.05" transform="translate(0, 4)" />

  <!-- 2. Main Hexagon Background (The Container) -->
  <path d="M128 24L224 80V176L128 232L32 176V80L128 24Z" fill="url(#apple_bg)" />

  <!-- 3. The Bun (Inside, Blurred) -->
  <g transform="translate(64, 78) scale(0.65)" filter="url(#frosted_glass)" opacity="0.85">
      <!-- Bun Body -->
      <path d="M48 180 C 48 80, 208 80, 208 180 L 48 180 Z" fill="#ffffff"/>
      <!-- Eyes -->
      <circle cx="95" cy="140" r="10" fill="#db2777" />
      <circle cx="161" cy="140" r="10" fill="#db2777" />
      <!-- Mouth -->
      <path d="M118 155 Q 123 162 128 155 Q 133 162 138 155" stroke="#db2777" stroke-width="5" stroke-linecap="round" fill="none" />
      <!-- Cheeks -->
      <circle cx="75" cy="155" r="15" fill="#ffd1dc" />
      <circle cx="181" cy="155" r="15" fill="#ffd1dc" />
  </g>

  <!-- 4. Glass Overlay (The Apple Look) -->
  <path d="M128 24L224 80V176L128 232L32 176V80L128 24Z" fill="url(#glass_reflection)" stroke="rgba(255,255,255,0.6)" stroke-width="2" />

  <!-- 5. Lightning Bolt (Sharp on Top) -->
  <g filter="url(#apple_shadow)">
    <!-- Lightning matches Hex Border Color #db2777 -->
    <path d="M148 56L92 128H140L108 200L164 128H116L148 56Z" fill="#db2777" stroke="#ffffff" stroke-width="4" stroke-linejoin="round" />
  </g>
  
  <!-- Subtle Highlight on Bolt -->
  <path d="M148 56L92 128H140L108 200L164 128H116L148 56Z" fill="#db2777" />
</svg>